<?xml version="1.0" standalone="no"?><svg xmlns="http://www.w3.org/2000/svg" viewBox="0 0 1440 320"><path fill="#1B1D24" fill-opacity="1" d="M0,64L40,90.7C80,117,160,171,240,160C320,149,400,75,480,53.3C560,32,640,64,720,112C800,160,880,224,960,250.7C1040,277,1120,267,1200,250.7C1280,235,1360,213,1400,202.7L1440,192L1440,320L1400,320C1360,320,1280,320,1200,320C1120,320,1040,320,960,320C880,320,800,320,720,320C640,320,560,320,480,320C400,320,320,320,240,320C160,320,80,320,40,320L0,320Z"></path></svg>